<svg width="70" height="36" viewBox="0 0 70 36" fill="none" xmlns="http://www.w3.org/2000/svg">
<path d="M17.136 0.600098C20.336 0.600098 23.232 1.3521 25.824 2.8561C28.448 4.3281 30.512 6.3921 32.016 9.0481C33.52 11.6721 34.272 14.6481 34.272 17.9761C34.272 21.3041 33.504 24.2961 31.968 26.9521C30.464 29.6081 28.4 31.6881 25.776 33.1921C23.184 34.6641 20.304 35.4001 17.136 35.4001C13.968 35.4001 11.072 34.6641 8.448 33.1921C5.856 31.6881 3.792 29.6081 2.256 26.9521C0.752 24.2961 0 21.3041 0 17.9761C0 14.6481 0.752 11.6721 2.256 9.0481C3.792 6.3921 5.856 4.3281 8.448 2.8561C11.072 1.3521 13.968 0.600098 17.136 0.600098ZM17.136 8.2321C14.448 8.2321 12.304 9.1121 10.704 10.8721C9.136 12.6001 8.352 14.9681 8.352 17.9761C8.352 20.9521 9.136 23.3201 10.704 25.0801C12.304 26.8401 14.448 27.7201 17.136 27.7201C19.792 27.7201 21.92 26.8401 23.52 25.0801C25.12 23.3201 25.92 20.9521 25.92 17.9761C25.92 15.0001 25.12 12.6321 23.52 10.8721C21.952 9.1121 19.824 8.2321 17.136 8.2321Z" fill="white"/>
<path d="M59.475 35.0641L52.323 24.5041L46.179 35.0641H36.771L47.619 17.5921L36.435 1.1281H46.179L53.139 11.3521L59.139 1.1281H68.499L57.795 18.2161L69.219 35.0641H59.475Z" fill="white"/>
</svg>
