<svg width="31" height="30" viewBox="0 0 31 30" fill="none" xmlns="http://www.w3.org/2000/svg">
<path d="M6.21899 2.25L3.21899 6.25V20.25C3.21899 20.7804 3.42971 21.2891 3.80478 21.6642C4.17985 22.0393 4.68856 22.25 5.21899 22.25H19.219C19.7494 22.25 20.2581 22.0393 20.6332 21.6642C21.0083 21.2891 21.219 20.7804 21.219 20.25V6.25L18.219 2.25H6.21899Z" stroke="white" stroke-width="1.5" stroke-linecap="round" stroke-linejoin="round"/>
<path d="M3.21899 6.25H21.219" stroke="white" stroke-width="1.5" stroke-linecap="round" stroke-linejoin="round"/>
<path d="M16.219 10.25C16.219 11.3109 15.7976 12.3283 15.0474 13.0784C14.2973 13.8286 13.2799 14.25 12.219 14.25C11.1581 14.25 10.1407 13.8286 9.39057 13.0784C8.64042 12.3283 8.21899 11.3109 8.21899 10.25" stroke="white" stroke-width="1.5" stroke-linecap="round" stroke-linejoin="round"/>
<circle cx="23.262" cy="21.75" r="7" fill="white"/>
<path d="M23.012 25.8693C22.3699 25.8693 21.823 25.6946 21.3713 25.3452C20.9196 24.9929 20.5745 24.483 20.3358 23.8153C20.0972 23.1449 19.9779 22.3352 19.9779 21.3864C19.9779 20.4432 20.0972 19.6378 20.3358 18.9702C20.5773 18.2997 20.9239 17.7884 21.3756 17.4361C21.8301 17.081 22.3756 16.9034 23.012 16.9034C23.6483 16.9034 24.1924 17.081 24.6441 17.4361C25.0986 17.7884 25.4452 18.2997 25.6838 18.9702C25.9253 19.6378 26.0461 20.4432 26.0461 21.3864C26.0461 22.3352 25.9267 23.1449 25.6881 23.8153C25.4495 24.483 25.1043 24.9929 24.6526 25.3452C24.2009 25.6946 23.654 25.8693 23.012 25.8693ZM23.012 24.9318C23.6483 24.9318 24.1426 24.625 24.4949 24.0114C24.8472 23.3977 25.0233 22.5227 25.0233 21.3864C25.0233 20.6307 24.9424 19.9872 24.7804 19.456C24.6213 18.9247 24.3912 18.5199 24.0901 18.2415C23.7918 17.9631 23.4324 17.8239 23.012 17.8239C22.3813 17.8239 21.8884 18.1349 21.5333 18.7571C21.1782 19.3764 21.0006 20.2528 21.0006 21.3864C21.0006 22.142 21.0801 22.7841 21.2392 23.3125C21.3983 23.8409 21.627 24.2429 21.9253 24.5185C22.2265 24.794 22.5887 24.9318 23.012 24.9318Z" fill="#374151"/>
</svg>
