<svg width="25" height="25" viewBox="0 0 25 25" fill="none" xmlns="http://www.w3.org/2000/svg">
<path d="M21.0589 4.86012C20.5481 4.34912 19.9417 3.94376 19.2742 3.6672C18.6068 3.39064 17.8914 3.24829 17.1689 3.24829C16.4464 3.24829 15.731 3.39064 15.0635 3.6672C14.3961 3.94376 13.7896 4.34912 13.2789 4.86012L12.2189 5.92012L11.1589 4.86012C10.1272 3.82842 8.7279 3.24883 7.26887 3.24883C5.80984 3.24883 4.41056 3.82842 3.37887 4.86012C2.34718 5.89181 1.76758 7.29108 1.76758 8.75012C1.76758 10.2091 2.34718 11.6084 3.37887 12.6401L4.43887 13.7001L12.2189 21.4801L19.9989 13.7001L21.0589 12.6401C21.5699 12.1294 21.9752 11.5229 22.2518 10.8555C22.5283 10.188 22.6707 9.4726 22.6707 8.75012C22.6707 8.02763 22.5283 7.31222 22.2518 6.64476C21.9752 5.9773 21.5699 5.37087 21.0589 4.86012V4.86012Z" stroke="white" stroke-width="1.5" stroke-linecap="round" stroke-linejoin="round"/>
</svg>
